<svg xmlns="http://www.w3.org/2000/svg" xmlns:xlink="http://www.w3.org/1999/xlink" version="1.1" class="marks" width="388" height="420" viewBox="0 0 388 420"><rect width="388" height="420" fill="white"/><g fill="none" stroke-miterlimit="10" transform="translate(46,10)"><g class="mark-group role-frame root" role="graphics-object" aria-roledescription="group mark container"><g transform="translate(0,0)"><path class="background" aria-hidden="true" d="M0.5,0.5h240v300h-240Z" stroke="#ddd"/><g><g class="mark-group role-axis" aria-hidden="true"><g transform="translate(0.5,0.5)"><path class="background" aria-hidden="true" d="M0,0h0v0h0Z" pointer-events="none"/><g><g class="mark-rule role-axis-grid" pointer-events="none"><line transform="translate(0,300)" x2="240" y2="0" stroke="#ddd" stroke-width="1" opacity="1"/><line transform="translate(0,250)" x2="240" y2="0" stroke="#ddd" stroke-width="1" opacity="1"/><line transform="translate(0,200)" x2="240" y2="0" stroke="#ddd" stroke-width="1" opacity="1"/><line transform="translate(0,150)" x2="240" y2="0" stroke="#ddd" stroke-width="1" opacity="1"/><line transform="translate(0,100)" x2="240" y2="0" stroke="#ddd" stroke-width="1" opacity="1"/><line transform="translate(0,50)" x2="240" y2="0" stroke="#ddd" stroke-width="1" opacity="1"/><line transform="translate(0,0)" x2="240" y2="0" stroke="#ddd" stroke-width="1" opacity="1"/></g></g><path class="foreground" aria-hidden="true" d="" pointer-events="none" display="none"/></g></g><g class="mark-group role-axis" role="graphics-symbol" aria-roledescription="axis" aria-label="X-axis titled 'Major Genre' for a discrete scale with 12 values: Action, Adventure, Black Comedy, Comedy, Concert, ending with Western"><g transform="translate(0.5,300.5)"><path class="background" aria-hidden="true" d="M0,0h0v0h0Z" pointer-events="none"/><g><g class="mark-rule role-axis-tick" pointer-events="none"><line transform="translate(10,0)" x2="0" y2="5" stroke="#888" stroke-width="1" opacity="1"/><line transform="translate(30,0)" x2="0" y2="5" stroke="#888" stroke-width="1" opacity="1"/><line transform="translate(50,0)" x2="0" y2="5" stroke="#888" stroke-width="1" opacity="1"/><line transform="translate(70,0)" x2="0" y2="5" stroke="#888" stroke-width="1" opacity="1"/><line transform="translate(90,0)" x2="0" y2="5" stroke="#888" stroke-width="1" opacity="1"/><line transform="translate(110,0)" x2="0" y2="5" stroke="#888" stroke-width="1" opacity="1"/><line transform="translate(130,0)" x2="0" y2="5" stroke="#888" stroke-width="1" opacity="1"/><line transform="translate(150,0)" x2="0" y2="5" stroke="#888" stroke-width="1" opacity="1"/><line transform="translate(170,0)" x2="0" y2="5" stroke="#888" stroke-width="1" opacity="1"/><line transform="translate(190,0)" x2="0" y2="5" stroke="#888" stroke-width="1" opacity="1"/><line transform="translate(210,0)" x2="0" y2="5" stroke="#888" stroke-width="1" opacity="1"/><line transform="translate(230,0)" x2="0" y2="5" stroke="#888" stroke-width="1" opacity="1"/></g><g class="mark-text role-axis-label" pointer-events="none"><text text-anchor="end" transform="translate(9.5,7) rotate(270) translate(0,3)" font-family="sans-serif" font-size="10px" fill="#000" opacity="1">Action</text><text text-anchor="end" transform="translate(29.5,7) rotate(270) translate(0,3)" font-family="sans-serif" font-size="10px" fill="#000" opacity="1">Adventure</text><text text-anchor="end" transform="translate(49.5,7) rotate(270) translate(0,3)" font-family="sans-serif" font-size="10px" fill="#000" opacity="1">Black Comedy</text><text text-anchor="end" transform="translate(69.5,7) rotate(270) translate(0,3)" font-family="sans-serif" font-size="10px" fill="#000" opacity="1">Comedy</text><text text-anchor="end" transform="translate(89.5,7) rotate(270) translate(0,3)" font-family="sans-serif" font-size="10px" fill="#000" opacity="1">Concert</text><text text-anchor="end" transform="translate(109.5,7) rotate(270) translate(0,3)" font-family="sans-serif" font-size="10px" fill="#000" opacity="1">Documentary</text><text text-anchor="end" transform="translate(129.5,7) rotate(270) translate(0,3)" font-family="sans-serif" font-size="10px" fill="#000" opacity="1">Drama</text><text text-anchor="end" transform="translate(149.5,7) rotate(270) translate(0,3)" font-family="sans-serif" font-size="10px" fill="#000" opacity="1">Horror</text><text text-anchor="end" transform="translate(169.5,7) rotate(270) translate(0,3)" font-family="sans-serif" font-size="10px" fill="#000" opacity="1">Musical</text><text text-anchor="end" transform="translate(189.5,7) rotate(270) translate(0,3)" font-family="sans-serif" font-size="10px" fill="#000" opacity="1">Romantic Comedy</text><text text-anchor="end" transform="translate(209.5,7) rotate(270) translate(0,3)" font-family="sans-serif" font-size="10px" fill="#000" opacity="1">Thriller</text><text text-anchor="end" transform="translate(229.5,7) rotate(270) translate(0,3)" font-family="sans-serif" font-size="10px" fill="#000" opacity="1">Western</text></g><g class="mark-rule role-axis-domain" pointer-events="none"><line transform="translate(0,0)" x2="240" y2="0" stroke="#888" stroke-width="1" opacity="1"/></g><g class="mark-text role-axis-title" pointer-events="none"><text text-anchor="middle" transform="translate(120,102.2509765625)" font-family="sans-serif" font-size="11px" font-weight="bold" fill="#000" opacity="1">Major Genre</text></g></g><path class="foreground" aria-hidden="true" d="" pointer-events="none" display="none"/></g></g><g class="mark-group role-axis" role="graphics-symbol" aria-roledescription="axis" aria-label="Y-axis titled 'SUM (Worldwide Gross)' for a linear scale with values from 0G to 30G"><g transform="translate(0.5,0.5)"><path class="background" aria-hidden="true" d="M0,0h0v0h0Z" pointer-events="none"/><g><g class="mark-rule role-axis-tick" pointer-events="none"><line transform="translate(0,300)" x2="-5" y2="0" stroke="#888" stroke-width="1" opacity="1"/><line transform="translate(0,250)" x2="-5" y2="0" stroke="#888" stroke-width="1" opacity="1"/><line transform="translate(0,200)" x2="-5" y2="0" stroke="#888" stroke-width="1" opacity="1"/><line transform="translate(0,150)" x2="-5" y2="0" stroke="#888" stroke-width="1" opacity="1"/><line transform="translate(0,100)" x2="-5" y2="0" stroke="#888" stroke-width="1" opacity="1"/><line transform="translate(0,50)" x2="-5" y2="0" stroke="#888" stroke-width="1" opacity="1"/><line transform="translate(0,0)" x2="-5" y2="0" stroke="#888" stroke-width="1" opacity="1"/></g><g class="mark-text role-axis-label" pointer-events="none"><text text-anchor="end" transform="translate(-7,303)" font-family="sans-serif" font-size="10px" fill="#000" opacity="1">0G</text><text text-anchor="end" transform="translate(-7,253)" font-family="sans-serif" font-size="10px" fill="#000" opacity="1">5G</text><text text-anchor="end" transform="translate(-7,203.00000000000003)" font-family="sans-serif" font-size="10px" fill="#000" opacity="1">10G</text><text text-anchor="end" transform="translate(-7,153)" font-family="sans-serif" font-size="10px" fill="#000" opacity="1">15G</text><text text-anchor="end" transform="translate(-7,103.00000000000001)" font-family="sans-serif" font-size="10px" fill="#000" opacity="1">20G</text><text text-anchor="end" transform="translate(-7,52.999999999999986)" font-family="sans-serif" font-size="10px" fill="#000" opacity="1">25G</text><text text-anchor="end" transform="translate(-7,3)" font-family="sans-serif" font-size="10px" fill="#000" opacity="1">30G</text></g><g class="mark-rule role-axis-domain" pointer-events="none"><line transform="translate(0,300)" x2="0" y2="-300" stroke="#888" stroke-width="1" opacity="1"/></g><g class="mark-text role-axis-title" pointer-events="none"><text text-anchor="middle" transform="translate(-29.9013671875,150) rotate(-90) translate(0,-2)" font-family="sans-serif" font-size="11px" font-weight="bold" fill="#000" opacity="1">SUM (Worldwide Gross)</text></g></g><path class="foreground" aria-hidden="true" d="" pointer-events="none" display="none"/></g></g><g class="mark-rect role-mark marks" role="graphics-object" aria-roledescription="rect mark container"><path aria-label="Major Genre: Horror; Sum of Worldwide Gross: 2.96192G; Content Rating: R" role="graphics-symbol" aria-roledescription="bar" d="M141,270.38082089h18v29.619179110000005h-18Z" fill="#72b7b2"/><path aria-label="Major Genre: Action; Sum of Worldwide Gross: 11.0465G; Content Rating: R" role="graphics-symbol" aria-roledescription="bar" d="M1,189.53508733h18v110.46491266999999h-18Z" fill="#72b7b2"/><path aria-label="Major Genre: Drama; Sum of Worldwide Gross: 9.38221G; Content Rating: R" role="graphics-symbol" aria-roledescription="bar" d="M121,206.17787408h18v93.82212591999999h-18Z" fill="#72b7b2"/><path aria-label="Major Genre: Comedy; Sum of Worldwide Gross: 9.9683G; Content Rating: PG-13" role="graphics-symbol" aria-roledescription="bar" d="M61,167.03253537h18v99.68297104999999h-18Z" fill="#e45756"/><path aria-label="Major Genre: Thriller; Sum of Worldwide Gross: 3.8013G; Content Rating: R" role="graphics-symbol" aria-roledescription="bar" d="M201,261.98703946h18v38.012960539999995h-18Z" fill="#72b7b2"/><path aria-label="Major Genre: Action; Sum of Worldwide Gross: 15.4229G; Content Rating: PG-13" role="graphics-symbol" aria-roledescription="bar" d="M1,35.30607849000001h18v154.22900884h-18Z" fill="#e45756"/><path aria-label="Major Genre: Adventure; Sum of Worldwide Gross: 15.1692G; Content Rating: PG-13" role="graphics-symbol" aria-roledescription="bar" d="M21,145.45704131h18v151.69213627000002h-18Z" fill="#e45756"/><path aria-label="Major Genre: Action; Sum of Worldwide Gross: 17.2206M; Content Rating: PG" role="graphics-symbol" aria-roledescription="bar" d="M1,35.133872499999995h18v0.17220599000001613h-18Z" fill="#f58518"/><path aria-label="Major Genre: Adventure; Sum of Worldwide Gross: 4.41373G; Content Rating: G" role="graphics-symbol" aria-roledescription="bar" d="M21,7.29074716h18v44.137274629999986h-18Z" fill="#4c78a8"/><path aria-label="Major Genre: Comedy; Sum of Worldwide Gross: 3.32845G; Content Rating: R" role="graphics-symbol" aria-roledescription="bar" d="M61,266.71550642h18v33.28449358h-18Z" fill="#72b7b2"/><path aria-label="Major Genre: Drama; Sum of Worldwide Gross: 1.53471G; Content Rating: PG" role="graphics-symbol" aria-roledescription="bar" d="M121,120.41415918h18v15.347078489999987h-18Z" fill="#f58518"/><path aria-label="Major Genre: Drama; Sum of Worldwide Gross: 7.04166G; Content Rating: PG-13" role="graphics-symbol" aria-roledescription="bar" d="M121,135.76123766999999h18v70.41663641000002h-18Z" fill="#e45756"/><path aria-label="Major Genre: Romantic Comedy; Sum of Worldwide Gross: 1.52769G; Content Rating: R" role="graphics-symbol" aria-roledescription="bar" d="M181,284.72309417h18v15.276905829999976h-18Z" fill="#72b7b2"/><path aria-label="Major Genre: Comedy; Sum of Worldwide Gross: 6.20623G; Content Rating: PG" role="graphics-symbol" aria-roledescription="bar" d="M61,104.97021431h18v62.06232106h-18Z" fill="#f58518"/><path aria-label="Major Genre: Romantic Comedy; Sum of Worldwide Gross: 3.19015G; Content Rating: PG-13" role="graphics-symbol" aria-roledescription="bar" d="M181,252.82161799h18v31.90147618000003h-18Z" fill="#e45756"/><path aria-label="Major Genre: Musical; Sum of Worldwide Gross: 354.77M; Content Rating: PG" role="graphics-symbol" aria-roledescription="bar" d="M161,290.2435046h18v3.547702700000002h-18Z" fill="#f58518"/><path aria-label="Major Genre: Musical; Sum of Worldwide Gross: 139.801M; Content Rating: G" role="graphics-symbol" aria-roledescription="bar" d="M161,288.84549050000004h18v1.3980140999999549h-18Z" fill="#4c78a8"/><path aria-label="Major Genre: Thriller; Sum of Worldwide Gross: 6.43053G; Content Rating: PG-13" role="graphics-symbol" aria-roledescription="bar" d="M201,197.68173545h18v64.30530401000001h-18Z" fill="#e45756"/><path aria-label="Major Genre: Horror; Sum of Worldwide Gross: 1.18728G; Content Rating: PG-13" role="graphics-symbol" aria-roledescription="bar" d="M141,258.50801911h18v11.872801779999975h-18Z" fill="#e45756"/><path aria-label="Major Genre: Adventure; Sum of Worldwide Gross: 9.4029G; Content Rating: PG" role="graphics-symbol" aria-roledescription="bar" d="M21,51.42802178999999h18v94.02901952h-18Z" fill="#f58518"/><path aria-label="Major Genre: Black Comedy; Sum of Worldwide Gross: 251.985M; Content Rating: R" role="graphics-symbol" aria-roledescription="bar" d="M41,297.48015081h18v2.519849190000002h-18Z" fill="#72b7b2"/><path aria-label="Major Genre: Comedy; Sum of Worldwide Gross: 1.40182G; Content Rating: G" role="graphics-symbol" aria-roledescription="bar" d="M61,90.95201777h18v14.018196540000005h-18Z" fill="#4c78a8"/><path aria-label="Major Genre: Romantic Comedy; Sum of Worldwide Gross: 1.18585G; Content Rating: PG" role="graphics-symbol" aria-roledescription="bar" d="M181,240.96307214h18v11.858545849999985h-18Z" fill="#f58518"/><path aria-label="Major Genre: Western; Sum of Worldwide Gross: 178.526M; Content Rating: PG-13" role="graphics-symbol" aria-roledescription="bar" d="M221,296.45134466h18v1.7852649299999825h-18Z" fill="#e45756"/><path aria-label="Major Genre: Concert; Sum of Worldwide Gross: 38.2363M; Content Rating: R" role="graphics-symbol" aria-roledescription="bar" d="M81,299.61763662h18v0.38236338000001524h-18Z" fill="#72b7b2"/><path aria-label="Major Genre: Musical; Sum of Worldwide Gross: 620.879M; Content Rating: PG-13" role="graphics-symbol" aria-roledescription="bar" d="M161,293.7912073h18v6.208792700000004h-18Z" fill="#e45756"/><path aria-label="Major Genre: Western; Sum of Worldwide Gross: 176.339M; Content Rating: R" role="graphics-symbol" aria-roledescription="bar" d="M221,298.23660959h18v1.7633904099999995h-18Z" fill="#72b7b2"/><path aria-label="Major Genre: Documentary; Sum of Worldwide Gross: 235.551M; Content Rating: R" role="graphics-symbol" aria-roledescription="bar" d="M101,297.64449409h18v2.3555059099999767h-18Z" fill="#72b7b2"/><path aria-label="Major Genre: Adventure; Sum of Worldwide Gross: 285.082M; Content Rating: R" role="graphics-symbol" aria-roledescription="bar" d="M21,297.14917758h18v2.850822419999986h-18Z" fill="#72b7b2"/><path aria-label="Major Genre: Drama; Sum of Worldwide Gross: 143.986M; Content Rating: G" role="graphics-symbol" aria-roledescription="bar" d="M121,118.97430209999999h18v1.4398570800000101h-18Z" fill="#4c78a8"/></g><g class="mark-group role-legend" role="graphics-symbol" aria-roledescription="legend" aria-label="Symbol legend titled 'Content Rating' for fill color with 4 values: G, PG, PG-13, R"><g transform="translate(258,0)"><path class="background" aria-hidden="true" d="M0,0h79v66h-79Z" pointer-events="none"/><g><g class="mark-group role-legend-entry"><g transform="translate(0,16)"><path class="background" aria-hidden="true" d="M0,0h0v0h0Z" pointer-events="none"/><g><g class="mark-group role-scope" role="graphics-object" aria-roledescription="group mark container"><g transform="translate(0,0)"><path class="background" aria-hidden="true" d="M0,0h44.9013671875v11h-44.9013671875Z" pointer-events="none" opacity="1"/><g><g class="mark-symbol role-legend-symbol" pointer-events="none"><path transform="translate(6,6)" d="M-5,-5h10v10h-10Z" fill="#4c78a8" stroke-width="1.5" opacity="1"/></g><g class="mark-text role-legend-label" pointer-events="none"><text text-anchor="start" transform="translate(16,9)" font-family="sans-serif" font-size="10px" fill="#000" opacity="1">G</text></g></g><path class="foreground" aria-hidden="true" d="" pointer-events="none" display="none"/></g><g transform="translate(0,13)"><path class="background" aria-hidden="true" d="M0,0h44.9013671875v11h-44.9013671875Z" pointer-events="none" opacity="1"/><g><g class="mark-symbol role-legend-symbol" pointer-events="none"><path transform="translate(6,6)" d="M-5,-5h10v10h-10Z" fill="#f58518" stroke-width="1.5" opacity="1"/></g><g class="mark-text role-legend-label" pointer-events="none"><text text-anchor="start" transform="translate(16,9)" font-family="sans-serif" font-size="10px" fill="#000" opacity="1">PG</text></g></g><path class="foreground" aria-hidden="true" d="" pointer-events="none" display="none"/></g><g transform="translate(0,26)"><path class="background" aria-hidden="true" d="M0,0h44.9013671875v11h-44.9013671875Z" pointer-events="none" opacity="1"/><g><g class="mark-symbol role-legend-symbol" pointer-events="none"><path transform="translate(6,6)" d="M-5,-5h10v10h-10Z" fill="#e45756" stroke-width="1.5" opacity="1"/></g><g class="mark-text role-legend-label" pointer-events="none"><text text-anchor="start" transform="translate(16,9)" font-family="sans-serif" font-size="10px" fill="#000" opacity="1">PG-13</text></g></g><path class="foreground" aria-hidden="true" d="" pointer-events="none" display="none"/></g><g transform="translate(0,39)"><path class="background" aria-hidden="true" d="M0,0h44.9013671875v11h-44.9013671875Z" pointer-events="none" opacity="1"/><g><g class="mark-symbol role-legend-symbol" pointer-events="none"><path transform="translate(6,6)" d="M-5,-5h10v10h-10Z" fill="#72b7b2" stroke-width="1.5" opacity="1"/></g><g class="mark-text role-legend-label" pointer-events="none"><text text-anchor="start" transform="translate(16,9)" font-family="sans-serif" font-size="10px" fill="#000" opacity="1">R</text></g></g><path class="foreground" aria-hidden="true" d="" pointer-events="none" display="none"/></g></g></g><path class="foreground" aria-hidden="true" d="" pointer-events="none" display="none"/></g></g><g class="mark-text role-legend-title" pointer-events="none"><text text-anchor="start" transform="translate(0,9)" font-family="sans-serif" font-size="11px" font-weight="bold" fill="#000" opacity="1">Content Rating</text></g></g><path class="foreground" aria-hidden="true" d="" pointer-events="none" display="none"/></g></g></g><path class="foreground" aria-hidden="true" d="" display="none"/></g></g></g></svg>