<svg xmlns="http://www.w3.org/2000/svg" xmlns:xlink="http://www.w3.org/1999/xlink" version="1.1" class="marks" width="1049" height="424" viewBox="0 0 1049 424"><rect width="1049" height="424" fill="white"/><g fill="none" stroke-miterlimit="10" transform="translate(64,10)"><g class="mark-group role-frame root" role="graphics-object" aria-roledescription="group mark container"><g transform="translate(0,0)"><path class="background" aria-hidden="true" d="M0.5,0.5h980v300h-980Z" stroke="#ddd"/><g><g class="mark-group role-axis" aria-hidden="true"><g transform="translate(0.5,0.5)"><path class="background" aria-hidden="true" d="M0,0h0v0h0Z" pointer-events="none"/><g><g class="mark-rule role-axis-grid" pointer-events="none"><line transform="translate(0,277)" x2="980" y2="0" stroke="#ddd" stroke-width="1" opacity="1"/><line transform="translate(0,231)" x2="980" y2="0" stroke="#ddd" stroke-width="1" opacity="1"/><line transform="translate(0,185)" x2="980" y2="0" stroke="#ddd" stroke-width="1" opacity="1"/><line transform="translate(0,138)" x2="980" y2="0" stroke="#ddd" stroke-width="1" opacity="1"/><line transform="translate(0,92)" x2="980" y2="0" stroke="#ddd" stroke-width="1" opacity="1"/><line transform="translate(0,46)" x2="980" y2="0" stroke="#ddd" stroke-width="1" opacity="1"/><line transform="translate(0,0)" x2="980" y2="0" stroke="#ddd" stroke-width="1" opacity="1"/></g></g><path class="foreground" aria-hidden="true" d="" pointer-events="none" display="none"/></g></g><g class="mark-group role-axis" role="graphics-symbol" aria-roledescription="axis" aria-label="X-axis titled 'State' for a discrete scale with 49 values: Alabama, Arizona, Arkansas, California, Colorado, ending with Wyoming"><g transform="translate(0.5,300.5)"><path class="background" aria-hidden="true" d="M0,0h0v0h0Z" pointer-events="none"/><g><g class="mark-rule role-axis-tick" pointer-events="none"><line transform="translate(10,0)" x2="0" y2="5" stroke="#888" stroke-width="1" opacity="1"/><line transform="translate(30,0)" x2="0" y2="5" stroke="#888" stroke-width="1" opacity="1"/><line transform="translate(50,0)" x2="0" y2="5" stroke="#888" stroke-width="1" opacity="1"/><line transform="translate(70,0)" x2="0" y2="5" stroke="#888" stroke-width="1" opacity="1"/><line transform="translate(90,0)" x2="0" y2="5" stroke="#888" stroke-width="1" opacity="1"/><line transform="translate(110,0)" x2="0" y2="5" stroke="#888" stroke-width="1" opacity="1"/><line transform="translate(130,0)" x2="0" y2="5" stroke="#888" stroke-width="1" opacity="1"/><line transform="translate(150,0)" x2="0" y2="5" stroke="#888" stroke-width="1" opacity="1"/><line transform="translate(170,0)" x2="0" y2="5" stroke="#888" stroke-width="1" opacity="1"/><line transform="translate(190,0)" x2="0" y2="5" stroke="#888" stroke-width="1" opacity="1"/><line transform="translate(210,0)" x2="0" y2="5" stroke="#888" stroke-width="1" opacity="1"/><line transform="translate(230,0)" x2="0" y2="5" stroke="#888" stroke-width="1" opacity="1"/><line transform="translate(250,0)" x2="0" y2="5" stroke="#888" stroke-width="1" opacity="1"/><line transform="translate(270,0)" x2="0" y2="5" stroke="#888" stroke-width="1" opacity="1"/><line transform="translate(290,0)" x2="0" y2="5" stroke="#888" stroke-width="1" opacity="1"/><line transform="translate(310,0)" x2="0" y2="5" stroke="#888" stroke-width="1" opacity="1"/><line transform="translate(330,0)" x2="0" y2="5" stroke="#888" stroke-width="1" opacity="1"/><line transform="translate(350,0)" x2="0" y2="5" stroke="#888" stroke-width="1" opacity="1"/><line transform="translate(370,0)" x2="0" y2="5" stroke="#888" stroke-width="1" opacity="1"/><line transform="translate(390,0)" x2="0" y2="5" stroke="#888" stroke-width="1" opacity="1"/><line transform="translate(410,0)" x2="0" y2="5" stroke="#888" stroke-width="1" opacity="1"/><line transform="translate(430,0)" x2="0" y2="5" stroke="#888" stroke-width="1" opacity="1"/><line transform="translate(450,0)" x2="0" y2="5" stroke="#888" stroke-width="1" opacity="1"/><line transform="translate(470,0)" x2="0" y2="5" stroke="#888" stroke-width="1" opacity="1"/><line transform="translate(490,0)" x2="0" y2="5" stroke="#888" stroke-width="1" opacity="1"/><line transform="translate(510,0)" x2="0" y2="5" stroke="#888" stroke-width="1" opacity="1"/><line transform="translate(530,0)" x2="0" y2="5" stroke="#888" stroke-width="1" opacity="1"/><line transform="translate(550,0)" x2="0" y2="5" stroke="#888" stroke-width="1" opacity="1"/><line transform="translate(570,0)" x2="0" y2="5" stroke="#888" stroke-width="1" opacity="1"/><line transform="translate(590,0)" x2="0" y2="5" stroke="#888" stroke-width="1" opacity="1"/><line transform="translate(610,0)" x2="0" y2="5" stroke="#888" stroke-width="1" opacity="1"/><line transform="translate(630,0)" x2="0" y2="5" stroke="#888" stroke-width="1" opacity="1"/><line transform="translate(650,0)" x2="0" y2="5" stroke="#888" stroke-width="1" opacity="1"/><line transform="translate(670,0)" x2="0" y2="5" stroke="#888" stroke-width="1" opacity="1"/><line transform="translate(690,0)" x2="0" y2="5" stroke="#888" stroke-width="1" opacity="1"/><line transform="translate(710,0)" x2="0" y2="5" stroke="#888" stroke-width="1" opacity="1"/><line transform="translate(730,0)" x2="0" y2="5" stroke="#888" stroke-width="1" opacity="1"/><line transform="translate(750,0)" x2="0" y2="5" stroke="#888" stroke-width="1" opacity="1"/><line transform="translate(770,0)" x2="0" y2="5" stroke="#888" stroke-width="1" opacity="1"/><line transform="translate(790,0)" x2="0" y2="5" stroke="#888" stroke-width="1" opacity="1"/><line transform="translate(810,0)" x2="0" y2="5" stroke="#888" stroke-width="1" opacity="1"/><line transform="translate(830,0)" x2="0" y2="5" stroke="#888" stroke-width="1" opacity="1"/><line transform="translate(850,0)" x2="0" y2="5" stroke="#888" stroke-width="1" opacity="1"/><line transform="translate(870,0)" x2="0" y2="5" stroke="#888" stroke-width="1" opacity="1"/><line transform="translate(890,0)" x2="0" y2="5" stroke="#888" stroke-width="1" opacity="1"/><line transform="translate(910,0)" x2="0" y2="5" stroke="#888" stroke-width="1" opacity="1"/><line transform="translate(930,0)" x2="0" y2="5" stroke="#888" stroke-width="1" opacity="1"/><line transform="translate(950,0)" x2="0" y2="5" stroke="#888" stroke-width="1" opacity="1"/><line transform="translate(970,0)" x2="0" y2="5" stroke="#888" stroke-width="1" opacity="1"/></g><g class="mark-text role-axis-label" pointer-events="none"><text text-anchor="end" transform="translate(9.5,7) rotate(270) translate(0,3)" font-family="sans-serif" font-size="10px" fill="#000" opacity="1">Alabama</text><text text-anchor="end" transform="translate(29.5,7) rotate(270) translate(0,3)" font-family="sans-serif" font-size="10px" fill="#000" opacity="1">Arizona</text><text text-anchor="end" transform="translate(49.5,7) rotate(270) translate(0,3)" font-family="sans-serif" font-size="10px" fill="#000" opacity="1">Arkansas</text><text text-anchor="end" transform="translate(69.5,7) rotate(270) translate(0,3)" font-family="sans-serif" font-size="10px" fill="#000" opacity="1">California</text><text text-anchor="end" transform="translate(89.5,7) rotate(270) translate(0,3)" font-family="sans-serif" font-size="10px" fill="#000" opacity="1">Colorado</text><text text-anchor="end" transform="translate(109.5,7) rotate(270) translate(0,3)" font-family="sans-serif" font-size="10px" fill="#000" opacity="1">Connecticut</text><text text-anchor="end" transform="translate(129.5,7) rotate(270) translate(0,3)" font-family="sans-serif" font-size="10px" fill="#000" opacity="1">Delaware</text><text text-anchor="end" transform="translate(149.5,7) rotate(270) translate(0,3)" font-family="sans-serif" font-size="10px" fill="#000" opacity="1">District of Columbia</text><text text-anchor="end" transform="translate(169.5,7) rotate(270) translate(0,3)" font-family="sans-serif" font-size="10px" fill="#000" opacity="1">Florida</text><text text-anchor="end" transform="translate(189.5,7) rotate(270) translate(0,3)" font-family="sans-serif" font-size="10px" fill="#000" opacity="1">Georgia</text><text text-anchor="end" transform="translate(209.5,7) rotate(270) translate(0,3)" font-family="sans-serif" font-size="10px" fill="#000" opacity="1">Idaho</text><text text-anchor="end" transform="translate(229.5,7) rotate(270) translate(0,3)" font-family="sans-serif" font-size="10px" fill="#000" opacity="1">Illinois</text><text text-anchor="end" transform="translate(249.5,7) rotate(270) translate(0,3)" font-family="sans-serif" font-size="10px" fill="#000" opacity="1">Indiana</text><text text-anchor="end" transform="translate(269.5,7) rotate(270) translate(0,3)" font-family="sans-serif" font-size="10px" fill="#000" opacity="1">Iowa</text><text text-anchor="end" transform="translate(289.5,7) rotate(270) translate(0,3)" font-family="sans-serif" font-size="10px" fill="#000" opacity="1">Kansas</text><text text-anchor="end" transform="translate(309.5,7) rotate(270) translate(0,3)" font-family="sans-serif" font-size="10px" fill="#000" opacity="1">Kentucky</text><text text-anchor="end" transform="translate(329.5,7) rotate(270) translate(0,3)" font-family="sans-serif" font-size="10px" fill="#000" opacity="1">Louisiana</text><text text-anchor="end" transform="translate(349.5,7) rotate(270) translate(0,3)" font-family="sans-serif" font-size="10px" fill="#000" opacity="1">Maine</text><text text-anchor="end" transform="translate(369.5,7) rotate(270) translate(0,3)" font-family="sans-serif" font-size="10px" fill="#000" opacity="1">Maryland</text><text text-anchor="end" transform="translate(389.5,7) rotate(270) translate(0,3)" font-family="sans-serif" font-size="10px" fill="#000" opacity="1">Massachusetts</text><text text-anchor="end" transform="translate(409.5,7) rotate(270) translate(0,3)" font-family="sans-serif" font-size="10px" fill="#000" opacity="1">Michigan</text><text text-anchor="end" transform="translate(429.5,7) rotate(270) translate(0,3)" font-family="sans-serif" font-size="10px" fill="#000" opacity="1">Minnesota</text><text text-anchor="end" transform="translate(449.5,7) rotate(270) translate(0,3)" font-family="sans-serif" font-size="10px" fill="#000" opacity="1">Mississippi</text><text text-anchor="end" transform="translate(469.5,7) rotate(270) translate(0,3)" font-family="sans-serif" font-size="10px" fill="#000" opacity="1">Missouri</text><text text-anchor="end" transform="translate(489.5,7) rotate(270) translate(0,3)" font-family="sans-serif" font-size="10px" fill="#000" opacity="1">Montana</text><text text-anchor="end" transform="translate(509.5,7) rotate(270) translate(0,3)" font-family="sans-serif" font-size="10px" fill="#000" opacity="1">Nebraska</text><text text-anchor="end" transform="translate(529.5,7) rotate(270) translate(0,3)" font-family="sans-serif" font-size="10px" fill="#000" opacity="1">Nevada</text><text text-anchor="end" transform="translate(549.5,7) rotate(270) translate(0,3)" font-family="sans-serif" font-size="10px" fill="#000" opacity="1">New Hampshire</text><text text-anchor="end" transform="translate(569.5,7) rotate(270) translate(0,3)" font-family="sans-serif" font-size="10px" fill="#000" opacity="1">New Jersey</text><text text-anchor="end" transform="translate(589.5,7) rotate(270) translate(0,3)" font-family="sans-serif" font-size="10px" fill="#000" opacity="1">New Mexico</text><text text-anchor="end" transform="translate(609.5,7) rotate(270) translate(0,3)" font-family="sans-serif" font-size="10px" fill="#000" opacity="1">New York</text><text text-anchor="end" transform="translate(629.5,7) rotate(270) translate(0,3)" font-family="sans-serif" font-size="10px" fill="#000" opacity="1">North Carolina</text><text text-anchor="end" transform="translate(649.5,7) rotate(270) translate(0,3)" font-family="sans-serif" font-size="10px" fill="#000" opacity="1">North Dakota</text><text text-anchor="end" transform="translate(669.5,7) rotate(270) translate(0,3)" font-family="sans-serif" font-size="10px" fill="#000" opacity="1">Ohio</text><text text-anchor="end" transform="translate(689.5,7) rotate(270) translate(0,3)" font-family="sans-serif" font-size="10px" fill="#000" opacity="1">Oklahoma</text><text text-anchor="end" transform="translate(709.5,7) rotate(270) translate(0,3)" font-family="sans-serif" font-size="10px" fill="#000" opacity="1">Oregon</text><text text-anchor="end" transform="translate(729.5,7) rotate(270) translate(0,3)" font-family="sans-serif" font-size="10px" fill="#000" opacity="1">Pennsylvania</text><text text-anchor="end" transform="translate(749.5,7) rotate(270) translate(0,3)" font-family="sans-serif" font-size="10px" fill="#000" opacity="1">Rhode Island</text><text text-anchor="end" transform="translate(769.5,7) rotate(270) translate(0,3)" font-family="sans-serif" font-size="10px" fill="#000" opacity="1">South Carolina</text><text text-anchor="end" transform="translate(789.5,7) rotate(270) translate(0,3)" font-family="sans-serif" font-size="10px" fill="#000" opacity="1">South Dakota</text><text text-anchor="end" transform="translate(809.5,7) rotate(270) translate(0,3)" font-family="sans-serif" font-size="10px" fill="#000" opacity="1">Tennessee</text><text text-anchor="end" transform="translate(829.5,7) rotate(270) translate(0,3)" font-family="sans-serif" font-size="10px" fill="#000" opacity="1">Texas</text><text text-anchor="end" transform="translate(849.5,7) rotate(270) translate(0,3)" font-family="sans-serif" font-size="10px" fill="#000" opacity="1">Utah</text><text text-anchor="end" transform="translate(869.5,7) rotate(270) translate(0,3)" font-family="sans-serif" font-size="10px" fill="#000" opacity="1">Vermont</text><text text-anchor="end" transform="translate(889.5,7) rotate(270) translate(0,3)" font-family="sans-serif" font-size="10px" fill="#000" opacity="1">Virginia</text><text text-anchor="end" transform="translate(909.5,7) rotate(270) translate(0,3)" font-family="sans-serif" font-size="10px" fill="#000" opacity="1">Washington</text><text text-anchor="end" transform="translate(929.5,7) rotate(270) translate(0,3)" font-family="sans-serif" font-size="10px" fill="#000" opacity="1">West Virginia</text><text text-anchor="end" transform="translate(949.5,7) rotate(270) translate(0,3)" font-family="sans-serif" font-size="10px" fill="#000" opacity="1">Wisconsin</text><text text-anchor="end" transform="translate(969.5,7) rotate(270) translate(0,3)" font-family="sans-serif" font-size="10px" fill="#000" opacity="1">Wyoming</text></g><g class="mark-rule role-axis-domain" pointer-events="none"><line transform="translate(0,0)" x2="980" y2="0" stroke="#888" stroke-width="1" opacity="1"/></g><g class="mark-text role-axis-title" pointer-events="none"><text text-anchor="middle" transform="translate(490,106.689453125)" font-family="sans-serif" font-size="11px" font-weight="bold" fill="#000" opacity="1">State</text></g></g><path class="foreground" aria-hidden="true" d="" pointer-events="none" display="none"/></g></g><g class="mark-group role-axis" role="graphics-symbol" aria-roledescription="axis" aria-label="Y-axis titled 'SUM (Profit)' for a linear scale with values from −15,000 to 50,000"><g transform="translate(0.5,0.5)"><path class="background" aria-hidden="true" d="M0,0h0v0h0Z" pointer-events="none"/><g><g class="mark-rule role-axis-tick" pointer-events="none"><line transform="translate(0,277)" x2="-5" y2="0" stroke="#888" stroke-width="1" opacity="1"/><line transform="translate(0,231)" x2="-5" y2="0" stroke="#888" stroke-width="1" opacity="1"/><line transform="translate(0,185)" x2="-5" y2="0" stroke="#888" stroke-width="1" opacity="1"/><line transform="translate(0,138)" x2="-5" y2="0" stroke="#888" stroke-width="1" opacity="1"/><line transform="translate(0,92)" x2="-5" y2="0" stroke="#888" stroke-width="1" opacity="1"/><line transform="translate(0,46)" x2="-5" y2="0" stroke="#888" stroke-width="1" opacity="1"/><line transform="translate(0,0)" x2="-5" y2="0" stroke="#888" stroke-width="1" opacity="1"/></g><g class="mark-text role-axis-label" pointer-events="none"><text text-anchor="end" transform="translate(-7,279.92307692307696)" font-family="sans-serif" font-size="10px" fill="#000" opacity="1">−10,000</text><text text-anchor="end" transform="translate(-7,233.76923076923075)" font-family="sans-serif" font-size="10px" fill="#000" opacity="1">0</text><text text-anchor="end" transform="translate(-7,187.6153846153846)" font-family="sans-serif" font-size="10px" fill="#000" opacity="1">10,000</text><text text-anchor="end" transform="translate(-7,141.46153846153848)" font-family="sans-serif" font-size="10px" fill="#000" opacity="1">20,000</text><text text-anchor="end" transform="translate(-7,95.3076923076923)" font-family="sans-serif" font-size="10px" fill="#000" opacity="1">30,000</text><text text-anchor="end" transform="translate(-7,49.15384615384615)" font-family="sans-serif" font-size="10px" fill="#000" opacity="1">40,000</text><text text-anchor="end" transform="translate(-7,3)" font-family="sans-serif" font-size="10px" fill="#000" opacity="1">50,000</text></g><g class="mark-rule role-axis-domain" pointer-events="none"><line transform="translate(0,300)" x2="0" y2="-300" stroke="#888" stroke-width="1" opacity="1"/></g><g class="mark-text role-axis-title" pointer-events="none"><text text-anchor="middle" transform="translate(-47.42578125,150) rotate(-90) translate(0,-2)" font-family="sans-serif" font-size="11px" font-weight="bold" fill="#000" opacity="1">SUM (Profit)</text></g></g><path class="foreground" aria-hidden="true" d="" pointer-events="none" display="none"/></g></g><g class="mark-rect role-mark marks" role="graphics-object" aria-roledescription="rect mark container"><path aria-label="State: Indiana; Sum of Profit: 15524.6596" role="graphics-symbol" aria-roledescription="bar" d="M241,159.11695569230767h18v71.65227507692308h-18Z" fill="#4c78a8"/><path aria-label="State: New York; Sum of Profit: 41012.0212" role="graphics-symbol" aria-roledescription="bar" d="M601,41.48297907692321h18v189.28625169230753h-18Z" fill="#4c78a8"/><path aria-label="State: California; Sum of Profit: 49372.175" role="graphics-symbol" aria-roledescription="bar" d="M61,2.8976538461533474h18v227.87157692307738h-18Z" fill="#4c78a8"/><path aria-label="State: Colorado; Sum of Profit: −5824.9809" role="graphics-symbol" aria-roledescription="bar" d="M81,230.76923076923075h18v26.884527230769237h-18Z" fill="#4c78a8"/><path aria-label="State: Michigan; Sum of Profit: 17480.2806" role="graphics-symbol" aria-roledescription="bar" d="M401,150.0910126153846h18v80.67821815384613h-18Z" fill="#4c78a8"/><path aria-label="State: Washington; Sum of Profit: 21466.6555" role="graphics-symbol" aria-roledescription="bar" d="M901,131.69235923076923h18v99.07687153846152h-18Z" fill="#4c78a8"/><path aria-label="State: Kentucky; Sum of Profit: 5968.384" role="graphics-symbol" aria-roledescription="bar" d="M301,203.22284307692308h18v27.54638769230766h-18Z" fill="#4c78a8"/><path aria-label="State: North Dakota; Sum of Profit: 230.1497" role="graphics-symbol" aria-roledescription="bar" d="M641,229.70700138461538h18v1.0622293846153639h-18Z" fill="#4c78a8"/><path aria-label="State: New Mexico; Sum of Profit: 852.3424" role="graphics-symbol" aria-roledescription="bar" d="M581,226.83534276923075h18v3.933887999999996h-18Z" fill="#4c78a8"/><path aria-label="State: Texas; Sum of Profit: −14078.1598" role="graphics-symbol" aria-roledescription="bar" d="M821,230.76923076923075h18v64.97612215384615h-18Z" fill="#4c78a8"/><path aria-label="State: Tennessee; Sum of Profit: −3467.5906" role="graphics-symbol" aria-roledescription="bar" d="M801,230.76923076923075h18v16.004264307692324h-18Z" fill="#4c78a8"/><path aria-label="State: Illinois; Sum of Profit: −9554.6539" role="graphics-symbol" aria-roledescription="bar" d="M221,230.76923076923075h18v44.09840261538463h-18Z" fill="#4c78a8"/><path aria-label="State: Ohio; Sum of Profit: −9339.4223" role="graphics-symbol" aria-roledescription="bar" d="M661,230.76923076923075h18v43.10502600000004h-18Z" fill="#4c78a8"/><path aria-label="State: Iowa; Sum of Profit: 583.9453" role="graphics-symbol" aria-roledescription="bar" d="M261,228.0740986153846h18v2.6951321538461457h-18Z" fill="#4c78a8"/><path aria-label="State: Nebraska; Sum of Profit: 1775.4605" role="graphics-symbol" aria-roledescription="bar" d="M501,222.5747976923077h18v8.194433076923048h-18Z" fill="#4c78a8"/><path aria-label="State: Alabama; Sum of Profit: 3336.3075" role="graphics-symbol" aria-roledescription="bar" d="M1,215.37088846153847h18v15.398342307692275h-18Z" fill="#4c78a8"/><path aria-label="State: New Jersey; Sum of Profit: 7213.0952" role="graphics-symbol" aria-roledescription="bar" d="M561,197.47802215384618h18v33.29120861538456h-18Z" fill="#4c78a8"/><path aria-label="State: Florida; Sum of Profit: −227.7465" role="graphics-symbol" aria-roledescription="bar" d="M161,230.76923076923075h18v1.0511376923077194h-18Z" fill="#4c78a8"/><path aria-label="State: Louisiana; Sum of Profit: 1301.1721" role="graphics-symbol" aria-roledescription="bar" d="M321,224.7638210769231h18v6.005409692307637h-18Z" fill="#4c78a8"/><path aria-label="State: Massachusetts; Sum of Profit: 2768.8647" role="graphics-symbol" aria-roledescription="bar" d="M381,217.98985523076922h18v12.779375538461522h-18Z" fill="#4c78a8"/><path aria-label="State: Arizona; Sum of Profit: −2761.11" role="graphics-symbol" aria-roledescription="bar" d="M21,230.76923076923075h18v12.743584615384663h-18Z" fill="#4c78a8"/><path aria-label="State: Idaho; Sum of Profit: 479.3551" role="graphics-symbol" aria-roledescription="bar" d="M201,228.5568226153846h18v2.2124081538461553h-18Z" fill="#4c78a8"/><path aria-label="State: Connecticut; Sum of Profit: 2339.0135" role="graphics-symbol" aria-roledescription="bar" d="M101,219.97378384615382h18v10.795446923076923h-18Z" fill="#4c78a8"/><path aria-label="State: Arkansas; Sum of Profit: 1873.9949" role="graphics-symbol" aria-roledescription="bar" d="M41,222.12002353846154h18v8.649207230769207h-18Z" fill="#4c78a8"/><path aria-label="State: Missouri; Sum of Profit: 3099.2883" role="graphics-symbol" aria-roledescription="bar" d="M461,216.46482323076924h18v14.304407538461504h-18Z" fill="#4c78a8"/><path aria-label="State: Rhode Island; Sum of Profit: 5627.4571" role="graphics-symbol" aria-roledescription="bar" d="M741,204.79635184615384h18v25.972878923076905h-18Z" fill="#4c78a8"/><path aria-label="State: Minnesota; Sum of Profit: 2864.3483" role="graphics-symbol" aria-roledescription="bar" d="M421,217.54916169230768h18v13.220069076923068h-18Z" fill="#4c78a8"/><path aria-label="State: South Carolina; Sum of Profit: 438.7413" role="graphics-symbol" aria-roledescription="bar" d="M761,228.74427092307693h18v2.02495984615382h-18Z" fill="#4c78a8"/><path aria-label="State: Wisconsin; Sum of Profit: 5252.5593" role="graphics-symbol" aria-roledescription="bar" d="M941,206.52664938461535h18v24.24258138461539h-18Z" fill="#4c78a8"/><path aria-label="State: Pennsylvania; Sum of Profit: −9297.7975" role="graphics-symbol" aria-roledescription="bar" d="M721,230.76923076923075h18v42.91291153846154h-18Z" fill="#4c78a8"/><path aria-label="State: North Carolina; Sum of Profit: −4827.6923" role="graphics-symbol" aria-roledescription="bar" d="M621,230.76923076923075h18v22.28165676923078h-18Z" fill="#4c78a8"/><path aria-label="State: Virginia; Sum of Profit: 9657.4876" role="graphics-symbol" aria-roledescription="bar" d="M881,186.19621107692305h18v44.573019692307696h-18Z" fill="#4c78a8"/><path aria-label="State: Oklahoma; Sum of Profit: 3431.8469" role="graphics-symbol" aria-roledescription="bar" d="M681,214.92993738461536h18v15.839293384615388h-18Z" fill="#4c78a8"/><path aria-label="State: Nevada; Sum of Profit: 2598.4455" role="graphics-symbol" aria-roledescription="bar" d="M521,218.77640538461537h18v11.992825384615372h-18Z" fill="#4c78a8"/><path aria-label="State: Mississippi; Sum of Profit: 2504.2418" role="graphics-symbol" aria-roledescription="bar" d="M441,219.21119169230766h18v11.55803907692308h-18Z" fill="#4c78a8"/><path aria-label="State: Vermont; Sum of Profit: 1053.0513" role="graphics-symbol" aria-roledescription="bar" d="M861,225.908994h18v4.860236769230738h-18Z" fill="#4c78a8"/><path aria-label="State: Delaware; Sum of Profit: 7029.9107" role="graphics-symbol" aria-roledescription="bar" d="M121,198.32348907692307h18v32.44574169230768h-18Z" fill="#4c78a8"/><path aria-label="State: Maryland; Sum of Profit: 3832.3505" role="graphics-symbol" aria-roledescription="bar" d="M361,213.08145923076924h18v17.687771538461504h-18Z" fill="#4c78a8"/><path aria-label="State: Georgia; Sum of Profit: 9994.4165" role="graphics-symbol" aria-roledescription="bar" d="M181,184.64115461538458h18v46.128076153846166h-18Z" fill="#4c78a8"/><path aria-label="State: Kansas; Sum of Profit: 494.2106" role="graphics-symbol" aria-roledescription="bar" d="M281,228.48825876923078h18v2.280971999999963h-18Z" fill="#4c78a8"/><path aria-label="State: Oregon; Sum of Profit: −942.9719" role="graphics-symbol" aria-roledescription="bar" d="M701,230.76923076923075h18v4.352178000000009h-18Z" fill="#4c78a8"/><path aria-label="State: South Dakota; Sum of Profit: 346.0717" role="graphics-symbol" aria-roledescription="bar" d="M781,229.17197676923078h18v1.597253999999964h-18Z" fill="#4c78a8"/><path aria-label="State: Utah; Sum of Profit: 1054.5308" role="graphics-symbol" aria-roledescription="bar" d="M841,225.90216553846153h18v4.867065230769214h-18Z" fill="#4c78a8"/><path aria-label="State: West Virginia; Sum of Profit: 185.9216" role="graphics-symbol" aria-roledescription="bar" d="M921,229.91113107692308h18v0.8580996923076611h-18Z" fill="#4c78a8"/><path aria-label="State: Montana; Sum of Profit: 1465.9255" role="graphics-symbol" aria-roledescription="bar" d="M481,224.0034207692308h18v6.765809999999959h-18Z" fill="#4c78a8"/><path aria-label="State: New Hampshire; Sum of Profit: 697.1219" role="graphics-symbol" aria-roledescription="bar" d="M541,227.55174507692308h18v3.217485692307662h-18Z" fill="#4c78a8"/><path aria-label="State: District of Columbia; Sum of Profit: 85.2758" role="graphics-symbol" aria-roledescription="bar" d="M141,230.37565015384618h18v0.3935806153845647h-18Z" fill="#4c78a8"/><path aria-label="State: Wyoming; Sum of Profit: 100.196" role="graphics-symbol" aria-roledescription="bar" d="M961,230.3067876923077h18v0.4624430769230514h-18Z" fill="#4c78a8"/><path aria-label="State: Maine; Sum of Profit: 165.2938" role="graphics-symbol" aria-roledescription="bar" d="M341,230.00633630769232h18v0.7628944615384228h-18Z" fill="#4c78a8"/></g></g><path class="foreground" aria-hidden="true" d="" display="none"/></g></g></g></svg>